<svg data-v-423bf9ae="" xmlns="http://www.w3.org/2000/svg" viewBox="0 0 214.3799118158154 60" class="font"><!----><!----><defs data-v-423bf9ae=""><linearGradient data-v-423bf9ae="" gradientTransform="rotate(25)" id="237cdd8b-b025-4526-a84c-986303e894d1" x1="0%" y1="0%" x2="100%" y2="0%"><stop data-v-423bf9ae="" offset="0%" style="stop-color: rgb(180, 55, 61); stop-opacity: 1;"></stop><stop data-v-423bf9ae="" offset="100%" style="stop-color: rgb(178, 58, 203); stop-opacity: 1;"></stop></linearGradient></defs><g data-v-423bf9ae="" id="c1462e13-531f-4995-8a47-ad926f2f7db8" fill="url(#237cdd8b-b025-4526-a84c-986303e894d1)" transform="matrix(4.709576222757963,0,0,4.709576222757963,-2.4960752214440447,-20.769229470064005)"><path d="M4.24 14.52C6.68 14.52 8.05 13.22 8.05 11.34C8.05 9.66 7.08 8.76 5.08 8.44L4.12 8.29C3.30 8.16 2.95 7.91 2.95 7.24C2.95 6.65 3.42 6.29 4.37 6.29C5.38 6.29 6.01 6.66 6.47 7.21L7.88 5.78C7.08 4.90 5.96 4.41 4.49 4.41C2.20 4.41 0.83 5.63 0.83 7.38C0.83 9.02 1.76 10.02 3.82 10.29L4.79 10.42C5.70 10.54 5.92 10.93 5.92 11.47C5.92 12.18 5.42 12.64 4.38 12.64C3.43 12.64 2.59 12.26 1.93 11.52L0.53 12.94C1.37 13.86 2.53 14.52 4.24 14.52ZM13.44 14.35L13.44 12.74L12.10 12.74L12.10 8.61L13.55 8.61L13.55 7.00L12.10 7.00L12.10 5.01L10.23 5.01L10.23 6.22C10.23 6.72 10.07 7.00 9.51 7.00L8.99 7.00L8.99 8.61L10.02 8.61L10.02 12.21C10.02 13.61 10.78 14.35 12.21 14.35ZM21.57 14.35L21.57 12.74L20.89 12.74L20.89 9.52C20.89 7.78 19.82 6.83 17.75 6.83C16.21 6.83 15.37 7.36 14.78 8.23L16.02 9.32C16.34 8.88 16.77 8.46 17.60 8.46C18.47 8.46 18.82 8.90 18.82 9.62L18.82 10.08L17.65 10.08C15.71 10.08 14.50 10.82 14.50 12.38C14.50 13.65 15.32 14.52 16.79 14.52C17.91 14.52 18.72 14.01 18.94 13.06L19.03 13.06C19.15 13.85 19.68 14.35 20.43 14.35ZM17.56 13.08C16.94 13.08 16.59 12.82 16.59 12.29L16.59 12.08C16.59 11.55 17.01 11.26 17.81 11.26L18.82 11.26L18.82 12.12C18.82 12.80 18.24 13.08 17.56 13.08ZM26.25 10.43L25.70 12.56L25.62 12.56L25.09 10.43L24.01 7.00L21.95 7.00L24.53 14.73L24.28 15.54L22.89 15.54L22.89 17.15L24.18 17.15C25.44 17.15 26.05 16.62 26.43 15.48L29.26 7.00L27.33 7.00ZM36.72 6.47L36.72 4.58L29.30 4.58L29.30 6.47L31.95 6.47L31.95 14.35L34.08 14.35L34.08 6.47ZM42.87 14.35L46.05 4.58L43.96 4.58L42.50 9.27L41.76 12.33L41.72 12.33L40.95 9.27L39.49 4.58L37.34 4.58L40.49 14.35Z"></path></g><!----><!----></svg>